<svg width="199" height="202" viewBox="0 0 199 202" fill="none" xmlns="http://www.w3.org/2000/svg">
<path d="M155 85.9928C165.807 74.3947 172.233 79.2929 177.033 94.4929C180.003 111.569 178.533 127.611 176.032 139.494C183.457 139.331 198.143 133.043 198.625 109.404C198.631 108.938 198.635 108.468 198.637 107.994C198.692 93.7173 196.809 76.2163 191.531 61.4935C182.031 34.9935 137.533 -10.0065 79.0332 1.99354C20.5332 13.9935 -0.966824 68.9935 0.0331759 109.993C2.43472 135.192 16.7162 138.827 23.5568 137.494C22.3571 129.033 21.8469 118.771 21.5334 109.993C21.0334 95.9928 26.5334 79.9928 34.5334 85.9928C71.3334 109.193 134.5 107.994 155 85.9928Z" fill="#EB2227"/>
<path d="M0.0331759 109.993C0.833176 142.792 18.0333 150.326 26.5334 149.993C25.2281 146.924 24.2704 142.528 23.5568 137.494C16.7162 138.827 2.43472 135.192 0.0331759 109.993Z" fill="#A21E22"/>
<path d="M173.277 149.993C188.522 147.992 191.531 142.494 195.531 132.994C197.235 128.947 198.486 120.182 198.625 109.404C198.143 133.043 183.457 139.331 176.032 139.494C175.187 143.509 174.225 147.048 173.277 149.993Z" fill="#A11E22"/>
<path d="M26.5334 149.993C32.0334 166.493 49 201.494 102.123 201.494C144.524 201.494 163.7 170.826 171.033 155.993C171.723 154.442 172.495 152.42 173.277 149.993C174.225 147.048 175.187 143.509 176.032 139.494C178.533 127.611 180.003 111.569 177.033 94.4929C172.233 79.2929 165.807 74.3947 155 85.9928C134.5 107.994 71.3334 109.193 34.5334 85.9928C26.5334 79.9928 21.0334 95.9928 21.5334 109.993C21.8469 118.771 22.3571 129.033 23.5568 137.494C24.2704 142.528 25.2281 146.924 26.5334 149.993Z" fill="white"/>
<path d="M132.5 56.9941C132.5 75.7621 117.268 90.9941 98.5 90.9941C79.732 90.9941 64.5 75.7621 64.5 56.9941C64.5 38.2261 79.732 22.9941 98.5 22.9941C117.268 22.9941 132.5 38.2261 132.5 56.9941Z" fill="#D9D9D9"/>
<path d="M98.7713 75.9425C89.4326 75.9425 79.7313 67.9639 79.6406 55.1799C79.6406 46.7479 84.174 38.5879 89.9766 33.6919C95.6886 28.9772 103.486 25.9852 110.558 25.8945C111.465 25.8945 112.462 25.9852 113.006 26.1665C106.841 27.4359 101.854 33.2385 101.945 39.7665C101.945 39.9479 101.945 40.2199 101.945 40.3105C112.371 42.9399 117.086 49.1959 117.086 57.8092C117.086 66.4225 110.286 75.9425 98.7713 75.9425Z" fill="#D9D9D9"/>
<path d="M113.097 26.2581C106.932 27.5275 102.036 33.3301 102.036 39.8581C102.036 40.0395 102.036 40.3115 102.036 40.4021C112.372 42.9408 117.087 49.1968 117.087 57.8101C117.087 66.4235 110.287 75.9435 98.772 75.9435C89.4333 75.9435 79.732 67.9648 79.6413 55.1808C79.6413 46.7488 84.1747 38.5888 89.9773 33.6928C95.6893 28.9781 103.487 25.9861 110.559 25.8955C111.556 25.9861 112.463 26.0768 113.097 26.2581C108.655 24.1728 103.668 22.9941 98.5 22.9941C79.732 22.9941 64.5 38.2261 64.5 56.9941C64.5 75.7621 79.732 90.9941 98.5 90.9941C117.268 90.9941 132.5 75.7621 132.5 56.9941C132.5 43.3941 124.521 31.6981 113.097 26.2581Z" fill="white"/>
<path d="M90.0639 33.7828C84.2612 38.5882 79.6372 46.7482 79.7279 55.2708C79.7279 68.0548 89.5199 76.0335 98.8585 76.0335C110.373 76.0335 117.173 66.5135 117.173 57.9002C117.173 49.2868 112.459 43.0308 102.123 40.4922C102.123 40.4015 102.123 40.1295 102.123 39.9482C102.123 33.4202 107.019 27.6175 113.184 26.3482C112.64 26.1668 111.643 26.0762 110.736 26.0762C103.573 25.9855 95.7759 29.0682 90.0639 33.7828Z" fill="#EB2227"/>
<path d="M142.531 121.494C142.531 127.845 137.383 132.994 131.031 132.994C124.68 132.994 119.531 127.845 119.531 121.494C119.531 115.143 124.68 109.994 131.031 109.994C137.383 109.994 142.531 115.143 142.531 121.494Z" fill="black"/>
<path d="M79.5312 121.494C79.5312 127.845 74.3825 132.994 68.0312 132.994C61.68 132.994 56.5312 127.845 56.5312 121.494C56.5312 115.143 61.68 109.994 68.0312 109.994C74.3825 109.994 79.5312 115.143 79.5312 121.494Z" fill="black"/>
<path d="M63 159.5C76 178 111.5 194 137 159.5" stroke="black" stroke-width="12" stroke-linecap="round"/>
</svg>
